<svg width="24" height="24" viewBox="0 0 24 24" fill="none" xmlns="http://www.w3.org/2000/svg">
<g opacity="0.72">
<path d="M20.625 16.4374V7.5626C20.625 7.42978 20.5897 7.29935 20.5228 7.18463C20.4559 7.06991 20.3597 6.97503 20.244 6.90968L12.369 2.45859C12.2565 2.39495 12.1293 2.36151 12 2.36151C11.8707 2.36151 11.7435 2.39495 11.631 2.45859L3.75596 6.90968C3.64033 6.97503 3.54414 7.06991 3.4772 7.18463C3.41027 7.29935 3.375 7.42978 3.375 7.5626V16.4374C3.375 16.5702 3.41027 16.7007 3.4772 16.8154C3.54414 16.9301 3.64033 17.025 3.75596 17.0903L11.631 21.5414C11.7435 21.605 11.8707 21.6385 12 21.6385C12.1293 21.6385 12.2565 21.605 12.369 21.5414L20.244 17.0903C20.3597 17.025 20.4559 16.9301 20.5228 16.8154C20.5897 16.7007 20.625 16.5702 20.625 16.4374V16.4374Z" stroke="white" stroke-linecap="round" stroke-linejoin="round"/>
<path d="M12 15.375C13.864 15.375 15.375 13.864 15.375 12C15.375 10.136 13.864 8.625 12 8.625C10.136 8.625 8.625 10.136 8.625 12C8.625 13.864 10.136 15.375 12 15.375Z" stroke="white" stroke-linecap="round" stroke-linejoin="round"/>
</g>
</svg>
